:SAMPLES-PER-SECOND 30
:FRAME-RANGE 1-663
:FULLY-SPECIFIED
:DEGREES
581
root  7.33723 36.2521 -131.218 -155.959 -7.92652 177.255
RightUpLeg  -59.1167 -20.0414 24.535
RightLeg  29.3138 -5.3177 -3.47292
RightFoot  -5.05742 0.635622 -12.1405
RightToes  2.91037e-010 0 -3.6325e-017
Spine  32.3388 -0.368946 5.68026
Spine1  13.8584 0.651567 -4.0773
HEad  -15.062 -0.976957 -0.796171
LeftShoulder1  2.66143 -6.86244 -19.171
LeftArm  -38.3414 -64.9071 -23.5876
LeftForeArm  0.925857 1.31975 -13.1835
LeftHand  0.677551 -0.0967609 -14.3668
RightShoulder  12.5436 39.1479 22.4579
RightArm  -36.6143 34.3095 9.96952
RightForeArm  -13.4798 4.05527 10.5404
RightHand  1.60963 4.1935 19.0187
LeftUpLeg  -67.5964 31.7148 -17.9398
LeftLeg  54.7574 1.40665 2.63342
LeftFoot  1.04318 0.588075 -5.47708
LeftToes  -4.9116e-011 5.71383e-011 -3.31847e-011
582
root  6.97024 36.2022 -131.408 -153.158 -7.1251 177.259
RightUpLeg  -61.8567 -19.169 24.915
RightLeg  29.6461 -4.13636 -2.78987
RightFoot  -5.07874 0.604121 -11.6158
RightToes  2.91037e-010 0 -3.6325e-017
Spine  31.9237 -0.346497 4.46345
Spine1  16.8164 0.975476 -4.61554
HEad  -19.7828 -0.705024 -0.220338
LeftShoulder1  2.5611 -7.37401 -16.8672
LeftArm  -46.2555 -67.6544 -16.317
LeftForeArm  -0.788265 1.34526 -11.793
LeftHand  0.71001 -0.269565 -14.5655
RightShoulder  11.41 40.4176 18.7924
RightArm  -41.0341 36.7197 7.92408
RightForeArm  -14.8433 3.9663 9.31453
RightHand  1.52901 4.00343 18.444
LeftUpLeg  -69.7936 29.9272 -16.4399
LeftLeg  48.1191 0.284528 0.768927
LeftFoot  -1.59145 0.432469 -4.95777
LeftToes  -4.9116e-011 5.71383e-011 -3.31847e-011
583
root  6.57074 36.1538 -131.622 -150.378 -7.01518 177.557
RightUpLeg  -64.8307 -18.7834 26.1791
RightLeg  29.9325 -3.35152 -2.33056
RightFoot  -5.0422 0.617589 -11.7861
RightToes  2.91037e-010 0 -3.6325e-017
Spine  30.5557 -0.874725 4.3126
Spine1  20.8663 1.13668 -5.6207
HEad  -24.346 -0.180128 0.545156
LeftShoulder1  2.53484 -8.19881 -14.8106
LeftArm  -56.2688 -69.323 -6.4564
LeftForeArm  -2.19978 1.09107 -10.2816
LeftHand  0.732845 -0.296384 -14.9551
RightShoulder  10.3253 42.2164 15.1027
RightArm  -45.9107 38.4549 5.20577
RightForeArm  -15.492 3.42651 7.80337
RightHand  1.54749 4.08588 18.4999
LeftUpLeg  -70.1647 27.6913 -13.9897
LeftLeg  39.0075 -0.746976 -0.274321
LeftFoot  -1.71779 0.59865 -6.98469
LeftToes  -4.9116e-011 5.71383e-011 -3.31847e-011
584
root  6.11734 35.9796 -131.822 -147.763 -6.57608 178.633
RightUpLeg  -67.782 -17.6953 27.7251
RightLeg  30.9396 -2.7001 -1.99528
RightFoot  -5.19159 0.583723 -11.4666
RightToes  2.91037e-010 0 -3.6325e-017
Spine  27.7456 -1.25143 4.66413
Spine1  26.3787 1.60808 -6.80607
HEad  -28.6222 0.94425 1.42302
LeftShoulder1  2.47682 -8.93718 -12.883
LeftArm  -67.109 -69.7077 4.27261
LeftForeArm  -3.43953 0.0892875 -8.61741
LeftHand  0.722056 -0.193694 -15.0214
RightShoulder  8.94751 44.5406 10.7557
RightArm  -50.4235 39.3661 2.19425
RightForeArm  -17.072 3.23167 6.41905
RightHand  1.54396 4.17707 18.2778
LeftUpLeg  -70.7951 26.7553 -11.9915
LeftLeg  31.004 -1.34117 -0.524402
LeftFoot  -0.0539302 0.964264 -9.73875
LeftToes  -4.9116e-011 5.71383e-011 -3.31847e-011
585
root  5.58843 35.6867 -132.02 -145.349 -5.72308 -179.64
RightUpLeg  -70.472 -15.7318 28.9593
RightLeg  32.5798 -2.25209 -1.80386
RightFoot  -5.59908 0.518902 -11.0526
RightToes  2.91037e-010 0 -3.6325e-017
Spine  24.7862 -1.74891 5.39354
Spine1  32.0371 2.50239 -8.61791
HEad  -33.3058 2.18108 1.87701
LeftShoulder1  2.2345 -8.90068 -10.7845
LeftArm  -77.7311 -69.2708 15.4246
LeftForeArm  -5.53749 -0.793794 -7.03841
LeftHand  0.764823 -0.333241 -15.4957
RightShoulder  6.73898 46.6183 5.07585
RightArm  -55.2996 40.1137 -0.600706
RightForeArm  -19.3451 3.31338 4.84079
RightHand  1.51076 4.10507 18.0248
LeftUpLeg  -72.1569 26.9903 -11.1374
LeftLeg  26.5029 -3.18587 -1.39238
LeftFoot  3.6762 1.49918 -11.5142
LeftToes  -4.9116e-011 5.71383e-011 -3.31847e-011
586
root  5.0032 35.4204 -132.195 -143.091 -5.34911 -178.341
RightUpLeg  -73.0648 -13.9226 29.2424
RightLeg  34.2375 -2.50708 -2.09191
RightFoot  -5.84887 0.460005 -10.3728
RightToes  2.91037e-010 0 -3.6325e-017
Spine  22.2269 -2.87458 5.88318
Spine1  37.6557 3.28143 -10.7621
HEad  -38.0141 3.96089 1.83905
LeftShoulder1  1.92516 -8.4264 -8.69309
LeftArm  -86.7226 -67.6642 25.5125
LeftForeArm  -7.74402 -1.69723 -5.49498
LeftHand  0.777521 -0.287868 -15.8816
RightShoulder  4.1723 48.3272 -0.847414
RightArm  -60.1793 40.8579 -4.1272
RightForeArm  -21.3209 3.42246 3.33945
RightHand  1.49136 3.94383 18.1091
LeftUpLeg  -76.6795 27.698 -14.1909
LeftLeg  27.9139 -5.41361 -2.76625
LeftFoot  7.55061 0.908033 -5.73218
LeftToes  -4.9116e-011 5.71383e-011 -3.31847e-011
587
root  4.43868 35.0301 -132.363 -140.936 -5.58829 -177.274
RightUpLeg  -76.1854 -12.2115 29.0794
RightLeg  37.0061 -3.43098 -3.04284
RightFoot  -6.68314 0.356097 -9.82901
RightToes  2.91037e-010 0 -3.6325e-017
Spine  19.7919 -3.79843 6.18867
Spine1  42.6944 3.12691 -11.8845
HEad  -42.5491 6.53566 2.02916
LeftShoulder1  1.5596 -7.29389 -6.79589
LeftArm  -93.6634 -65.1542 34.5286
LeftForeArm  -10.7664 -2.45489 -4.13796
LeftHand  0.759551 0.0232583 -16.4598
RightShoulder  0.760026 49.6833 -8.10143
RightArm  -65.7098 41.1433 -7.39581
RightForeArm  -22.6843 3.96963 1.52891
RightHand  1.46003 3.8544 17.9056
LeftUpLeg  -81.6722 27.35 -15.1841
LeftLeg  32.5784 -5.15356 -3.19109
LeftFoot  4.66651 0.952996 -6.9744
LeftToes  -4.9116e-011 5.71383e-011 -3.31847e-011
588
root  3.886 34.6987 -132.578 -139.269 -5.80984 -175.998
RightUpLeg  -78.5244 -11.0847 29.4378
RightLeg  39.1881 -3.75035 -3.55527
RightFoot  -7.48156 0.251753 -8.94217
RightToes  2.91037e-010 0 -3.6325e-017
Spine  18.4476 -4.79761 6.17225
Spine1  47.1301 3.04005 -13.1929
HEad  -47.381 9.44263 1.58964
LeftShoulder1  1.22193 -5.58999 -5.66207
LeftArm  -98.8171 -61.9257 42.6207
LeftForeArm  -14.1297 -3.17268 -2.87736
LeftHand  0.776501 0.153174 -17.2564
RightShoulder  -3.3508 50.6604 -16.4068
RightArm  -71.2144 40.8366 -10.3665
RightForeArm  -24.5414 4.97456 -0.304941
RightHand  1.43301 3.66363 17.9552
LeftUpLeg  -85.8024 27.3506 -16.2672
LeftLeg  36.3557 -5.6643 -4.10282
LeftFoot  3.3009 0.657372 -5.27123
LeftToes  -4.9116e-011 5.71383e-011 -3.31847e-011
589
root  3.30713 34.4511 -132.803 -138.274 -5.29352 -174.046
RightUpLeg  -79.4464 -9.86362 30.125
RightLeg  40.4587 -3.50803 -3.49203
RightFoot  -7.8657 0.193218 -8.0968
RightToes  2.91037e-010 0 -3.6325e-017
Spine  18.431 -5.9414 5.5509
Spine1  50.6363 3.28832 -15.1257
HEad  -51.697 13.3852 0.693279
LeftShoulder1  0.845248 -3.04841 -5.0516
LeftArm  -101.498 -57.9701 48.3359
LeftForeArm  -17.923 -4.11793 -1.46098
LeftHand  0.780306 0.282548 -17.7966
RightShoulder  -8.15078 51.0933 -25.8518
RightArm  -76.9874 40.7261 -13.1257
RightForeArm  -26.426 5.92553 -2.3054
RightHand  1.41594 3.59675 17.8775
LeftUpLeg  -89.3097 28.4484 -16.9548
LeftLeg  39.9588 -5.60465 -4.64038
LeftFoot  0.99959 0.528153 -4.94057
LeftToes  -4.9116e-011 5.71383e-011 -3.31847e-011
590
root  2.76495 34.2337 -133.032 -137.404 -4.82508 -172.836
RightUpLeg  -80.4454 -9.09639 30.1558
RightLeg  41.8356 -3.2818 -3.44357
RightFoot  -8.32671 0.136222 -7.29645
RightToes  2.91037e-010 0 -3.6325e-017
Spine  18.9832 -7.28753 3.07117
Spine1  53.7904 2.68523 -16.7693
HEad  -56.2166 18.3782 -0.909452
LeftShoulder1  0.37558 0.550686 -4.83118
LeftArm  -101.29 -53.0249 52.1383
LeftForeArm  -23.1828 -5.40307 -0.114908
LeftHand  0.756762 0.640213 -18.6235
RightShoulder  -13.6226 50.9413 -36.5647
RightArm  -83.4727 40.5332 -16.2166
RightForeArm  -28.6638 7.0011 -4.58935
RightHand  1.39641 3.46916 17.8923
LeftUpLeg  -92.0263 29.004 -17.9375
LeftLeg  42.9756 -5.63395 -5.21025
LeftFoot  -0.375222 0.325478 -3.36768
LeftToes  -4.9116e-011 5.71383e-011 -3.31847e-011
591
root  2.26675 34.0639 -133.259 -137 -4.64712 -172.574
RightUpLeg  -81.3127 -8.79235 28.8407
RightLeg  43.4468 -3.7808 -4.14042
RightFoot  -8.97319 0.0596006 -5.80616
RightToes  2.91037e-010 0 -3.6325e-017
Spine  20.4577 -8.88856 -1.0591
Spine1  56.7021 1.35872 -18.4505
HEad  -61.3032 24.535 -2.8744
LeftShoulder1  -0.195936 5.05109 -4.7357
LeftArm  -99.2922 -47.42 54.3625
LeftForeArm  -28.3801 -6.9145 1.37559
LeftHand  0.723165 1.0444 -19.54
RightShoulder  -19.0061 49.7038 -47.6306
RightArm  -91.368 40.2411 -19.7383
RightForeArm  -31.3024 8.37396 -7.27639
RightHand  1.34671 3.18167 17.8524
LeftUpLeg  -93.2052 28.7222 -18.4511
LeftLeg  45.2436 -5.18944 -5.18311
LeftFoot  -1.81255 0.233263 -2.66825
LeftToes  -4.9116e-011 5.71383e-011 -3.31847e-011
592
root  1.80096 33.9183 -133.471 -136.608 -4.43352 -172.526
RightUpLeg  -82.008 -8.08514 26.6302
RightLeg  44.9654 -4.73183 -5.36785
RightFoot  -9.36502 0.0145414 -4.50681
RightToes  2.91037e-010 0 -3.6325e-017
Spine  21.9064 -10.3238 -4.9281
Spine1  59.5716 0.71753 -20.5433
HEad  -66.4333 30.0081 -4.9887
LeftShoulder1  -0.728283 9.4173 -4.30162
LeftArm  -96.5959 -42.3764 55.4665
LeftForeArm  -33.2748 -8.35625 2.7566
LeftHand  0.692319 1.34562 -20.1801
RightShoulder  -22.2122 46.7625 -56.1878
RightArm  -102.524 39.4389 -23.1535
RightForeArm  -30.4504 10.2657 -9.18752
RightHand  1.32106 2.98947 17.9266
LeftUpLeg  -93.877 28.1904 -18.6748
LeftLeg  47.1266 -4.65373 -4.93955
LeftFoot  -3.15148 0.160803 -1.98152
LeftToes  -4.9116e-011 5.71383e-011 -3.31847e-011
593
root  1.35233 33.7749 -133.674 -136.356 -4.19617 -172.445
RightUpLeg  -82.4999 -6.9787 23.8685
RightLeg  46.5132 -6.08352 -7.16196
RightFoot  -9.66952 -0.0179386 -3.24907
RightToes  2.91037e-010 0 -3.6325e-017
Spine  23.3744 -11.1474 -7.95488
Spine1  61.9301 0.452504 -22.1257
HEad  -71.1215 33.6655 -7.10126
LeftShoulder1  -1.10831 12.7893 -3.83388
LeftArm  -95.3407 -38.5545 55.8949
LeftForeArm  -36.6792 -9.5781 4.24864
LeftHand  0.649063 1.68527 -20.7679
RightShoulder  -23.2203 43.0308 -61.8535
RightArm  -116.575 38.185 -25.6557
RightForeArm  -25.146 12.492 -9.78054
RightHand  1.39875 3.45941 17.9425
LeftUpLeg  -94.376 27.7509 -18.8674
LeftLeg  48.9292 -4.18355 -4.706
LeftFoot  -4.47624 0.0839357 -0.950376
LeftToes  -4.9116e-011 5.71383e-011 -3.31847e-011
